<mxfile host="65bd71144e">
    <diagram id="uQYVmyNpYl6lIh5Ko1Br" name="Page-1">
        <mxGraphModel dx="3072" dy="854" grid="1" gridSize="10" guides="1" tooltips="1" connect="1" arrows="1" fold="1" page="1" pageScale="1" pageWidth="1100" pageHeight="850" math="0" shadow="0">
            <root>
                <mxCell id="0"/>
                <mxCell id="1" parent="0"/>
                <mxCell id="87" value="" style="ellipse;whiteSpace=wrap;html=1;fontSize=20;strokeColor=#522e2e;" parent="1" vertex="1">
                    <mxGeometry x="725.63" y="130" width="143.75" height="50" as="geometry"/>
                </mxCell>
                <mxCell id="2" value="USER&lt;br style=&quot;font-size: 20px;&quot;&gt;" style="whiteSpace=wrap;html=1;fontSize=20;" parent="1" vertex="1">
                    <mxGeometry x="815" y="270" width="120" height="60" as="geometry"/>
                </mxCell>
                <mxCell id="3" value="ADMIN" style="whiteSpace=wrap;html=1;fontSize=20;" parent="1" vertex="1">
                    <mxGeometry x="155" y="270" width="170" height="60" as="geometry"/>
                </mxCell>
                <mxCell id="5" value="VIEWS" style="rhombus;whiteSpace=wrap;html=1;fontSize=20;" parent="1" vertex="1">
                    <mxGeometry x="460" y="260" width="80" height="80" as="geometry"/>
                </mxCell>
                <mxCell id="12" value="ADDS" style="rhombus;whiteSpace=wrap;html=1;fontSize=20;" parent="1" vertex="1">
                    <mxGeometry x="200" y="460" width="80" height="80" as="geometry"/>
                </mxCell>
                <mxCell id="14" value="PROPERTY" style="whiteSpace=wrap;html=1;fontSize=20;" parent="1" vertex="1">
                    <mxGeometry x="145" y="630" width="190" height="60" as="geometry"/>
                </mxCell>
                <mxCell id="16" value="Password" style="ellipse;whiteSpace=wrap;html=1;fontSize=20;" parent="1" vertex="1">
                    <mxGeometry x="55" y="180" width="115" height="40" as="geometry"/>
                </mxCell>
                <mxCell id="18" value="contact" style="ellipse;whiteSpace=wrap;html=1;fontSize=20;" parent="1" vertex="1">
                    <mxGeometry x="182.5" y="160" width="115" height="40" as="geometry"/>
                </mxCell>
                <mxCell id="20" value="&lt;u&gt;user_id&lt;/u&gt;" style="ellipse;whiteSpace=wrap;html=1;fontSize=20;" parent="1" vertex="1">
                    <mxGeometry x="625" y="200" width="115" height="40" as="geometry"/>
                </mxCell>
                <mxCell id="21" value="Name" style="ellipse;whiteSpace=wrap;html=1;fontSize=20;" parent="1" vertex="1">
                    <mxGeometry x="740" y="135" width="115" height="40" as="geometry"/>
                </mxCell>
                <mxCell id="22" value="contact" style="ellipse;whiteSpace=wrap;html=1;fontSize=20;" parent="1" vertex="1">
                    <mxGeometry x="885" y="150" width="115" height="40" as="geometry"/>
                </mxCell>
                <mxCell id="23" value="Email" style="ellipse;whiteSpace=wrap;html=1;fontSize=20;" parent="1" vertex="1">
                    <mxGeometry x="955" y="210" width="115" height="40" as="geometry"/>
                </mxCell>
                <mxCell id="24" value="&lt;u&gt;admin_id&lt;/u&gt;" style="ellipse;whiteSpace=wrap;html=1;fontSize=20;" parent="1" vertex="1">
                    <mxGeometry x="-5" y="250" width="115" height="40" as="geometry"/>
                </mxCell>
                <mxCell id="34" value="&lt;u&gt;property_id&lt;/u&gt;" style="ellipse;whiteSpace=wrap;html=1;fontSize=20;" parent="1" vertex="1">
                    <mxGeometry x="-30" y="670" width="115" height="40" as="geometry"/>
                </mxCell>
                <mxCell id="35" value="location&lt;span style=&quot;color: rgba(0, 0, 0, 0); font-family: monospace; font-size: 0px; text-align: start;&quot;&gt;%3CmxGraphModel%3E%3Croot%3E%3CmxCell%20id%3D%220%22%2F%3E%3CmxCell%20id%3D%221%22%20parent%3D%220%22%2F%3E%3CmxCell%20id%3D%222%22%20value%3D%22seller_name%22%20style%3D%22ellipse%3BwhiteSpace%3Dwrap%3Bhtml%3D1%3BfontSize%3D20%3B%22%20vertex%3D%221%22%20parent%3D%221%22%3E%3CmxGeometry%20x%3D%22210%22%20y%3D%22760%22%20width%3D%22115%22%20height%3D%2240%22%20as%3D%22geometry%22%2F%3E%3C%2FmxCell%3E%3C%2Froot%3E%3C%2FmxGraphModel%3E&lt;/span&gt;" style="ellipse;whiteSpace=wrap;html=1;fontSize=20;" parent="1" vertex="1">
                    <mxGeometry x="55" y="740" width="115" height="40" as="geometry"/>
                </mxCell>
                <mxCell id="36" value="purpose" style="ellipse;whiteSpace=wrap;html=1;fontSize=20;" parent="1" vertex="1">
                    <mxGeometry x="155" y="780" width="115" height="40" as="geometry"/>
                </mxCell>
                <mxCell id="43" value="VIEWS" style="rhombus;whiteSpace=wrap;html=1;fontSize=20;" parent="1" vertex="1">
                    <mxGeometry x="485" y="490" width="80" height="80" as="geometry"/>
                </mxCell>
                <mxCell id="52" value="price" style="ellipse;whiteSpace=wrap;html=1;fontSize=20;" parent="1" vertex="1">
                    <mxGeometry x="325" y="720" width="115" height="40" as="geometry"/>
                </mxCell>
                <mxCell id="54" value="email" style="ellipse;whiteSpace=wrap;html=1;fontSize=20;" parent="1" vertex="1">
                    <mxGeometry x="325" y="190" width="115" height="40" as="geometry"/>
                </mxCell>
                <mxCell id="56" value="first_name" style="ellipse;whiteSpace=wrap;html=1;fontSize=20;" parent="1" vertex="1">
                    <mxGeometry x="655" y="50" width="115" height="40" as="geometry"/>
                </mxCell>
                <mxCell id="57" value="last_name" style="ellipse;whiteSpace=wrap;html=1;fontSize=20;" parent="1" vertex="1">
                    <mxGeometry x="805" y="50" width="115" height="40" as="geometry"/>
                </mxCell>
                <mxCell id="60" value="description" style="ellipse;whiteSpace=wrap;html=1;fontSize=20;" parent="1" vertex="1">
                    <mxGeometry x="410" y="670" width="115" height="40" as="geometry"/>
                </mxCell>
                <mxCell id="64" value="" style="endArrow=none;html=1;rounded=0;strokeColor=default;fontSize=20;entryX=0;entryY=0.5;entryDx=0;entryDy=0;exitX=1;exitY=0.5;exitDx=0;exitDy=0;" parent="1" source="3" target="5" edge="1">
                    <mxGeometry width="50" height="50" relative="1" as="geometry">
                        <mxPoint x="370" y="320" as="sourcePoint"/>
                        <mxPoint x="420" y="270" as="targetPoint"/>
                    </mxGeometry>
                </mxCell>
                <mxCell id="65" value="" style="endArrow=none;html=1;rounded=0;strokeColor=default;fontSize=20;entryX=0;entryY=0.5;entryDx=0;entryDy=0;exitX=1;exitY=0.5;exitDx=0;exitDy=0;" parent="1" target="2" edge="1">
                    <mxGeometry width="50" height="50" relative="1" as="geometry">
                        <mxPoint x="540" y="299.33" as="sourcePoint"/>
                        <mxPoint x="675" y="299.33" as="targetPoint"/>
                    </mxGeometry>
                </mxCell>
                <mxCell id="66" value="" style="endArrow=none;html=1;rounded=0;strokeColor=default;fontSize=20;entryX=0.5;entryY=0;entryDx=0;entryDy=0;exitX=0.5;exitY=1;exitDx=0;exitDy=0;" parent="1" source="3" target="12" edge="1">
                    <mxGeometry width="50" height="50" relative="1" as="geometry">
                        <mxPoint x="170" y="399.99999999999994" as="sourcePoint"/>
                        <mxPoint x="445" y="400.67" as="targetPoint"/>
                    </mxGeometry>
                </mxCell>
                <mxCell id="67" value="" style="endArrow=none;html=1;rounded=0;strokeColor=default;fontSize=20;exitX=0.5;exitY=1;exitDx=0;exitDy=0;entryX=0.5;entryY=0;entryDx=0;entryDy=0;" parent="1" source="12" target="14" edge="1">
                    <mxGeometry width="50" height="50" relative="1" as="geometry">
                        <mxPoint x="240" y="550" as="sourcePoint"/>
                        <mxPoint x="240" y="620" as="targetPoint"/>
                    </mxGeometry>
                </mxCell>
                <mxCell id="68" value="" style="endArrow=none;html=1;rounded=0;strokeColor=default;fontSize=20;entryX=0;entryY=1;entryDx=0;entryDy=0;exitX=1;exitY=0;exitDx=0;exitDy=0;" parent="1" source="43" target="2" edge="1">
                    <mxGeometry width="50" height="50" relative="1" as="geometry">
                        <mxPoint x="590" y="430.00000000000006" as="sourcePoint"/>
                        <mxPoint x="865" y="430.67000000000013" as="targetPoint"/>
                    </mxGeometry>
                </mxCell>
                <mxCell id="69" value="" style="endArrow=none;html=1;rounded=0;strokeColor=default;fontSize=20;entryX=0.121;entryY=0.64;entryDx=0;entryDy=0;exitX=0.75;exitY=0;exitDx=0;exitDy=0;entryPerimeter=0;" parent="1" source="14" target="43" edge="1">
                    <mxGeometry width="50" height="50" relative="1" as="geometry">
                        <mxPoint x="260" y="750" as="sourcePoint"/>
                        <mxPoint x="510" y="550.0000000000001" as="targetPoint"/>
                    </mxGeometry>
                </mxCell>
                <mxCell id="70" value="" style="endArrow=none;html=1;rounded=0;strokeColor=default;fontSize=20;entryX=0.5;entryY=1;entryDx=0;entryDy=0;exitX=0.5;exitY=0;exitDx=0;exitDy=0;" parent="1" source="3" target="18" edge="1">
                    <mxGeometry width="50" height="50" relative="1" as="geometry">
                        <mxPoint x="220" y="270" as="sourcePoint"/>
                        <mxPoint x="270" y="220" as="targetPoint"/>
                    </mxGeometry>
                </mxCell>
                <mxCell id="71" value="" style="endArrow=none;html=1;rounded=0;strokeColor=default;fontSize=20;exitX=0.5;exitY=0;exitDx=0;exitDy=0;" parent="1" target="54" edge="1">
                    <mxGeometry width="50" height="50" relative="1" as="geometry">
                        <mxPoint x="296.39" y="270" as="sourcePoint"/>
                        <mxPoint x="296.39" y="200" as="targetPoint"/>
                    </mxGeometry>
                </mxCell>
                <mxCell id="72" value="" style="endArrow=none;html=1;rounded=0;strokeColor=default;fontSize=20;entryX=0.764;entryY=0.974;entryDx=0;entryDy=0;entryPerimeter=0;exitX=0.051;exitY=-0.023;exitDx=0;exitDy=0;exitPerimeter=0;" parent="1" source="3" target="16" edge="1">
                    <mxGeometry width="50" height="50" relative="1" as="geometry">
                        <mxPoint x="160" y="260" as="sourcePoint"/>
                        <mxPoint x="230.5612530040206" y="229.99730308808975" as="targetPoint"/>
                    </mxGeometry>
                </mxCell>
                <mxCell id="73" value="" style="endArrow=none;html=1;rounded=0;strokeColor=default;fontSize=20;exitX=0.5;exitY=0;exitDx=0;exitDy=0;entryX=0.751;entryY=0.983;entryDx=0;entryDy=0;entryPerimeter=0;" parent="1" target="24" edge="1">
                    <mxGeometry width="50" height="50" relative="1" as="geometry">
                        <mxPoint x="155" y="313.11999999999995" as="sourcePoint"/>
                        <mxPoint x="127.86000000000013" y="259.99999999999994" as="targetPoint"/>
                    </mxGeometry>
                </mxCell>
                <mxCell id="75" value="" style="endArrow=none;html=1;rounded=0;strokeColor=default;fontSize=20;entryX=0.5;entryY=1;entryDx=0;entryDy=0;" parent="1" target="22" edge="1">
                    <mxGeometry width="50" height="50" relative="1" as="geometry">
                        <mxPoint x="880" y="270" as="sourcePoint"/>
                        <mxPoint x="920" y="200" as="targetPoint"/>
                    </mxGeometry>
                </mxCell>
                <mxCell id="76" value="" style="endArrow=none;html=1;rounded=0;strokeColor=default;fontSize=20;entryX=0.653;entryY=0.965;entryDx=0;entryDy=0;entryPerimeter=0;" parent="1" target="21" edge="1">
                    <mxGeometry width="50" height="50" relative="1" as="geometry">
                        <mxPoint x="849.9999999999995" y="269.9999999999999" as="sourcePoint"/>
                        <mxPoint x="896.2849999999999" y="191.7199999999999" as="targetPoint"/>
                    </mxGeometry>
                </mxCell>
                <mxCell id="77" value="" style="endArrow=none;html=1;rounded=0;strokeColor=default;fontSize=20;entryX=1;entryY=0.5;entryDx=0;entryDy=0;" parent="1" target="20" edge="1">
                    <mxGeometry width="50" height="50" relative="1" as="geometry">
                        <mxPoint x="814.9999999999995" y="289.9999999999999" as="sourcePoint"/>
                        <mxPoint x="765.0949999999998" y="208.60000000000002" as="targetPoint"/>
                    </mxGeometry>
                </mxCell>
                <mxCell id="78" value="" style="endArrow=none;html=1;rounded=0;strokeColor=default;fontSize=20;entryX=0.5;entryY=1;entryDx=0;entryDy=0;exitX=1;exitY=0;exitDx=0;exitDy=0;" parent="1" source="2" target="23" edge="1">
                    <mxGeometry width="50" height="50" relative="1" as="geometry">
                        <mxPoint x="999.9999999999995" y="329.9999999999999" as="sourcePoint"/>
                        <mxPoint x="924.9999999999995" y="259.9999999999999" as="targetPoint"/>
                    </mxGeometry>
                </mxCell>
                <mxCell id="80" value="" style="endArrow=none;html=1;rounded=0;strokeColor=default;fontSize=20;" parent="1" edge="1">
                    <mxGeometry width="50" height="50" relative="1" as="geometry">
                        <mxPoint x="130" y="740" as="sourcePoint"/>
                        <mxPoint x="180" y="690" as="targetPoint"/>
                    </mxGeometry>
                </mxCell>
                <mxCell id="81" value="" style="endArrow=none;html=1;rounded=0;strokeColor=default;fontSize=20;exitX=1;exitY=1;exitDx=0;exitDy=0;" parent="1" source="34" edge="1">
                    <mxGeometry width="50" height="50" relative="1" as="geometry">
                        <mxPoint x="130" y="710" as="sourcePoint"/>
                        <mxPoint x="150" y="670" as="targetPoint"/>
                    </mxGeometry>
                </mxCell>
                <mxCell id="82" value="" style="endArrow=none;html=1;rounded=0;strokeColor=default;fontSize=20;entryX=0;entryY=0.5;entryDx=0;entryDy=0;exitX=1;exitY=1;exitDx=0;exitDy=0;" parent="1" source="14" target="60" edge="1">
                    <mxGeometry width="50" height="50" relative="1" as="geometry">
                        <mxPoint x="370" y="670" as="sourcePoint"/>
                        <mxPoint x="366.84000000000003" y="667.93" as="targetPoint"/>
                    </mxGeometry>
                </mxCell>
                <mxCell id="83" value="" style="endArrow=none;html=1;rounded=0;strokeColor=default;fontSize=20;exitX=0.5;exitY=1;exitDx=0;exitDy=0;entryX=0.5;entryY=0;entryDx=0;entryDy=0;" parent="1" source="14" target="36" edge="1">
                    <mxGeometry width="50" height="50" relative="1" as="geometry">
                        <mxPoint x="239.99863991822667" y="722.0721356237309" as="sourcePoint"/>
                        <mxPoint x="335" y="720" as="targetPoint"/>
                    </mxGeometry>
                </mxCell>
                <mxCell id="84" value="" style="endArrow=none;html=1;rounded=0;strokeColor=default;fontSize=20;exitX=0.75;exitY=1;exitDx=0;exitDy=0;entryX=0;entryY=0.5;entryDx=0;entryDy=0;" parent="1" source="14" target="52" edge="1">
                    <mxGeometry width="50" height="50" relative="1" as="geometry">
                        <mxPoint x="279.9986399182267" y="692.0721356237309" as="sourcePoint"/>
                        <mxPoint x="375" y="690" as="targetPoint"/>
                    </mxGeometry>
                </mxCell>
                <mxCell id="85" value="" style="endArrow=none;html=1;rounded=0;strokeColor=default;fontSize=20;entryX=0.5;entryY=1;entryDx=0;entryDy=0;exitX=1;exitY=0;exitDx=0;exitDy=0;" parent="1" source="87" target="57" edge="1">
                    <mxGeometry width="50" height="50" relative="1" as="geometry">
                        <mxPoint x="840" y="130" as="sourcePoint"/>
                        <mxPoint x="867.5" y="70" as="targetPoint"/>
                    </mxGeometry>
                </mxCell>
                <mxCell id="86" value="" style="endArrow=none;html=1;rounded=0;strokeColor=default;fontSize=20;entryX=0.5;entryY=1;entryDx=0;entryDy=0;exitX=0;exitY=0;exitDx=0;exitDy=0;" parent="1" source="87" target="56" edge="1">
                    <mxGeometry width="50" height="50" relative="1" as="geometry">
                        <mxPoint x="740.0007863408824" y="159.99501658557085" as="sourcePoint"/>
                        <mxPoint x="779.64" y="94.24" as="targetPoint"/>
                    </mxGeometry>
                </mxCell>
                <mxCell id="88" value="MESSAGE&lt;span style=&quot;color: rgba(0, 0, 0, 0); font-family: monospace; font-size: 0px; text-align: start;&quot;&gt;%3CmxGraphModel%3E%3Croot%3E%3CmxCell%20id%3D%220%22%2F%3E%3CmxCell%20id%3D%221%22%20parent%3D%220%22%2F%3E%3CmxCell%20id%3D%222%22%20value%3D%22USER%26lt%3Bbr%20style%3D%26quot%3Bfont-size%3A%2020px%3B%26quot%3B%26gt%3B%22%20style%3D%22whiteSpace%3Dwrap%3Bhtml%3D1%3BfontSize%3D20%3B%22%20vertex%3D%221%22%20parent%3D%221%22%3E%3CmxGeometry%20x%3D%22815%22%20y%3D%22270%22%20width%3D%22120%22%20height%3D%2260%22%20as%3D%22geometry%22%2F%3E%3C%2FmxCell%3E%3C%2Froot%3E%3C%2FmxGraphModel%3E&lt;/span&gt;" style="whiteSpace=wrap;html=1;fontSize=20;" parent="1" vertex="1">
                    <mxGeometry x="1360" y="270" width="120" height="60" as="geometry"/>
                </mxCell>
                <mxCell id="89" value="CATEGORY&lt;span style=&quot;color: rgba(0, 0, 0, 0); font-family: monospace; font-size: 0px; text-align: start;&quot;&gt;%3CmxGraphModel%3E%3Croot%3E%3CmxCell%20id%3D%220%22%2F%3E%3CmxCell%20id%3D%221%22%20parent%3D%220%22%2F%3E%3CmxCell%20id%3D%222%22%20value%3D%22USER%26lt%3Bbr%20style%3D%26quot%3Bfont-size%3A%2020px%3B%26quot%3B%26gt%3B%22%20style%3D%22whiteSpace%3Dwrap%3Bhtml%3D1%3BfontSize%3D20%3B%22%20vertex%3D%221%22%20parent%3D%221%22%3E%3CmxGeometry%20x%3D%22815%22%20y%3D%22270%22%20width%3D%22120%22%20height%3D%2260%22%20as%3D%22geometry%22%2F%3E%3C%2FmxCell%3E%3C%2Froot%3E%3C%2FmxGraphModel%3E&lt;/span&gt;" style="whiteSpace=wrap;html=1;fontSize=20;" parent="1" vertex="1">
                    <mxGeometry x="805" y="620" width="160" height="60" as="geometry"/>
                </mxCell>
                <mxCell id="91" value="title" style="ellipse;whiteSpace=wrap;html=1;fontSize=20;" parent="1" vertex="1">
                    <mxGeometry x="-20" y="600" width="115" height="40" as="geometry"/>
                </mxCell>
                <mxCell id="92" value="area" style="ellipse;whiteSpace=wrap;html=1;fontSize=20;" parent="1" vertex="1">
                    <mxGeometry x="85" y="550" width="115" height="40" as="geometry"/>
                </mxCell>
                <mxCell id="94" value="category" style="ellipse;whiteSpace=wrap;html=1;fontSize=20;" parent="1" vertex="1">
                    <mxGeometry x="280" y="770" width="115" height="40" as="geometry"/>
                </mxCell>
                <mxCell id="96" value="&lt;u&gt;id&lt;/u&gt;" style="ellipse;whiteSpace=wrap;html=1;fontSize=20;" parent="1" vertex="1">
                    <mxGeometry x="754.38" y="770" width="115" height="40" as="geometry"/>
                </mxCell>
                <mxCell id="97" value="Type" style="ellipse;whiteSpace=wrap;html=1;fontSize=20;" parent="1" vertex="1">
                    <mxGeometry x="950" y="760" width="115" height="40" as="geometry"/>
                </mxCell>
                <mxCell id="98" value="message" style="ellipse;whiteSpace=wrap;html=1;fontSize=20;" parent="1" vertex="1">
                    <mxGeometry x="1310" y="170" width="115" height="40" as="geometry"/>
                </mxCell>
                <mxCell id="99" value="title" style="ellipse;whiteSpace=wrap;html=1;fontSize=20;" parent="1" vertex="1">
                    <mxGeometry x="1460" y="180" width="115" height="40" as="geometry"/>
                </mxCell>
                <mxCell id="100" value="" style="endArrow=none;html=1;rounded=0;strokeColor=default;fontSize=20;exitX=0.5;exitY=1;exitDx=0;exitDy=0;entryX=0;entryY=0;entryDx=0;entryDy=0;" parent="1" source="92" target="14" edge="1">
                    <mxGeometry width="50" height="50" relative="1" as="geometry">
                        <mxPoint x="77.86078634087062" y="714.244983414425" as="sourcePoint"/>
                        <mxPoint x="190" y="670" as="targetPoint"/>
                    </mxGeometry>
                </mxCell>
                <mxCell id="101" value="" style="endArrow=none;html=1;rounded=0;strokeColor=default;fontSize=20;exitX=1;exitY=0.5;exitDx=0;exitDy=0;entryX=0;entryY=0.25;entryDx=0;entryDy=0;" parent="1" source="91" target="14" edge="1">
                    <mxGeometry width="50" height="50" relative="1" as="geometry">
                        <mxPoint x="87.86078634087062" y="724.244983414425" as="sourcePoint"/>
                        <mxPoint x="200" y="680" as="targetPoint"/>
                    </mxGeometry>
                </mxCell>
                <mxCell id="105" value="" style="endArrow=none;html=1;rounded=0;strokeColor=default;fontSize=20;entryX=0.5;entryY=1;entryDx=0;entryDy=0;exitX=0.5;exitY=0;exitDx=0;exitDy=0;" parent="1" source="96" target="89" edge="1">
                    <mxGeometry width="50" height="50" relative="1" as="geometry">
                        <mxPoint x="380" y="670" as="sourcePoint"/>
                        <mxPoint x="504.6800000000003" y="551.2" as="targetPoint"/>
                    </mxGeometry>
                </mxCell>
                <mxCell id="106" value="" style="endArrow=none;html=1;rounded=0;strokeColor=default;fontSize=20;entryX=0.5;entryY=1;entryDx=0;entryDy=0;exitX=0;exitY=0.5;exitDx=0;exitDy=0;" parent="1" source="97" target="89" edge="1">
                    <mxGeometry width="50" height="50" relative="1" as="geometry">
                        <mxPoint x="872.5" y="790" as="sourcePoint"/>
                        <mxPoint x="890" y="700" as="targetPoint"/>
                    </mxGeometry>
                </mxCell>
                <mxCell id="107" value="HAS" style="rhombus;whiteSpace=wrap;html=1;fontSize=20;" parent="1" vertex="1">
                    <mxGeometry x="575" y="610" width="80" height="80" as="geometry"/>
                </mxCell>
                <mxCell id="108" value="" style="endArrow=none;html=1;rounded=0;strokeColor=default;fontSize=20;entryX=0;entryY=0.5;entryDx=0;entryDy=0;exitX=1;exitY=0.25;exitDx=0;exitDy=0;" parent="1" source="14" target="107" edge="1">
                    <mxGeometry width="50" height="50" relative="1" as="geometry">
                        <mxPoint x="335" y="640" as="sourcePoint"/>
                        <mxPoint x="504.67999999999984" y="551.2" as="targetPoint"/>
                    </mxGeometry>
                </mxCell>
                <mxCell id="109" value="" style="endArrow=none;html=1;rounded=0;strokeColor=default;fontSize=20;entryX=0;entryY=0.5;entryDx=0;entryDy=0;" parent="1" target="89" edge="1">
                    <mxGeometry width="50" height="50" relative="1" as="geometry">
                        <mxPoint x="650" y="650" as="sourcePoint"/>
                        <mxPoint x="767.5" y="652.5" as="targetPoint"/>
                    </mxGeometry>
                </mxCell>
                <mxCell id="115" value="WRITES" style="rhombus;whiteSpace=wrap;html=1;fontSize=20;" parent="1" vertex="1">
                    <mxGeometry x="1120" y="260" width="130" height="80" as="geometry"/>
                </mxCell>
                <mxCell id="116" value="" style="endArrow=none;html=1;rounded=0;strokeColor=default;fontSize=20;entryX=0;entryY=0.5;entryDx=0;entryDy=0;" parent="1" source="115" target="88" edge="1">
                    <mxGeometry width="50" height="50" relative="1" as="geometry">
                        <mxPoint x="1140" y="298.74999999999994" as="sourcePoint"/>
                        <mxPoint x="1415" y="299.42" as="targetPoint"/>
                    </mxGeometry>
                </mxCell>
                <mxCell id="117" value="" style="endArrow=none;html=1;rounded=0;strokeColor=default;fontSize=20;entryX=0;entryY=0.5;entryDx=0;entryDy=0;exitX=1;exitY=0.5;exitDx=0;exitDy=0;" parent="1" source="2" target="115" edge="1">
                    <mxGeometry width="50" height="50" relative="1" as="geometry">
                        <mxPoint x="1260" y="310" as="sourcePoint"/>
                        <mxPoint x="1470" y="310" as="targetPoint"/>
                    </mxGeometry>
                </mxCell>
                <mxCell id="118" value="" style="endArrow=none;html=1;rounded=0;strokeColor=default;fontSize=20;entryX=0.25;entryY=0;entryDx=0;entryDy=0;exitX=0.5;exitY=1;exitDx=0;exitDy=0;" parent="1" source="98" target="88" edge="1">
                    <mxGeometry width="50" height="50" relative="1" as="geometry">
                        <mxPoint x="945" y="280" as="sourcePoint"/>
                        <mxPoint x="1022.5" y="260" as="targetPoint"/>
                    </mxGeometry>
                </mxCell>
                <mxCell id="119" value="" style="endArrow=none;html=1;rounded=0;strokeColor=default;fontSize=20;entryX=0.75;entryY=0;entryDx=0;entryDy=0;exitX=0.5;exitY=1;exitDx=0;exitDy=0;" parent="1" source="99" target="88" edge="1">
                    <mxGeometry width="50" height="50" relative="1" as="geometry">
                        <mxPoint x="1377.5" y="220" as="sourcePoint"/>
                        <mxPoint x="1400" y="280" as="targetPoint"/>
                    </mxGeometry>
                </mxCell>
            </root>
        </mxGraphModel>
    </diagram>
</mxfile>